<svg viewBox="0 0 64 64" xmlns="http://www.w3.org/2000/svg"><circle cx="32" cy="32" fill="#e5efef" r="23"/><path d="m22 3v2" fill="none" stroke="#4c241d" stroke-linecap="round" stroke-linejoin="round" stroke-width="2"/><path d="m22 9v2" fill="none" stroke="#4c241d" stroke-linecap="round" stroke-linejoin="round" stroke-width="2"/><path d="m18 7h2" fill="none" stroke="#4c241d" stroke-linecap="round" stroke-linejoin="round" stroke-width="2"/><path d="m24 7h2" fill="none" stroke="#4c241d" stroke-linecap="round" stroke-linejoin="round" stroke-width="2"/><path d="m40.082 4.667a1.069 1.069 0 1 1 -1.069-1.067 1.07 1.07 0 0 1 1.069 1.067z" fill="#4c241d"/><g stroke="#4c241d" stroke-linecap="round" stroke-linejoin="round" stroke-width="2"><path d="m42.117 13.459 11.6 3.865a4.4 4.4 0 0 1 2.936 3.385l5.161 28.385a2.7 2.7 0 0 1 -3.565 3.027l-4.523-1.616a9.765 9.765 0 0 0 -4.885-.435l-1.174.2a9.443 9.443 0 0 1 -9.407-4.076 12.119 12.119 0 0 0 -8.58-5.3l-.959-.12-3.231-10.5 11.859-15.363a4.305 4.305 0 0 1 4.768-1.452z" fill="#f53e28"/><path d="m42 27-7.639 15.162" fill="#f53e28"/><path d="m6 58.758v-3.758l-1-4 3-5-3.558-4.066a4.585 4.585 0 0 1 .907-6.834l3.376-2.25a31.409 31.409 0 0 0 6.619-5.877c.937-1.114 2.156-2.473 3.656-3.973q.491-.491.941-.9a9.666 9.666 0 0 1 8.568-2.345l10.491 2.245 3.553 6.218a1.683 1.683 0 0 1 .044 1.588l-.597 1.194 2 4-3 2-2-1-2.872-.718a2.81 2.81 0 0 1 -1.728-1.282l-2.4-4v5l3 6-6 5-.136-.091a2.517 2.517 0 0 1 -.176-4.059l2.312-1.85-5-2-7 1a7.875 7.875 0 0 1 -4 8v6l3 6h-3.837a.242.242 0 0 1 -.224-.152l-1.939-4.848v-5l-3 4 1 6h-3.759a.241.241 0 0 1 -.241-.242z" fill="#6b4f5b"/><path d="m23 32s0 5 3 6" fill="none"/><path d="m19 39a12.512 12.512 0 0 0 -2-4" fill="none"/><path d="m37.244 23.244.008.008a1.5 1.5 0 0 0 2.373-.377 6.014 6.014 0 0 1 4.375-2.875s-2.4-1.6-6.487.926a1.491 1.491 0 0 0 -.269 2.318z" fill="#fff"/><path d="m5 35s-2.657-8.172 3-11c8-4 5-10 2-11" fill="none"/><path d="m10.473 11.132a2 2 0 1 1 -2.813 2.845c-.785-.777-2.149-4.938-2.149-4.938s4.176 1.317 4.962 2.093z" fill="#f53e28"/><path d="m50.857 49.95.143-10.95" fill="#f53e28"/></g></svg>