<svg viewBox="0 0 48 48" xmlns="http://www.w3.org/2000/svg"><path d="m45 23-3 9h-37l-2-5 3-8c5.53-3.15 4.41-2.52 6-3.42.33-1.4 0 .11 2-8.58l7-6c1.82 6.09 1.34 4.49 1.79 6l6.21-5 5 4c1.52 8.11 1 6.85 2.39 7.34l4.61 1.66z" fill="#9fdbf3"/><path d="m45 23-2.33 7h-22a11.84 11.84 0 0 1 -11.81-12.64c6.9-3.94-.44 0 6.12-3.78l2.02-8.58 4.14-3.55 1.65 5.55 6.21-5 5 4 1.3 7 5.7 2z" fill="#b2e5fb"/><path d="m43 38-6 1-5 6-2-3-4.45-1.49c-1.39-.46-.43-.95-4.55 2.49l-7-6-8-1-1-4h37z" fill="#6fabe6"/><path d="m43 38-6 1-3.15 3.78-1.85-2.78-5.57-1.86-3.43 2.86-7-6-5.95-.74a3 3 0 0 1 -2.55-2.26h34.5z" fill="#82bcf4"/><path d="m28.89 36.45c-1.38 2.76-.64 1.81-3.34 4.06-1.34-.44-.92-.54-1.89.27a1 1 0 0 1 .13-1.41c3-2.49 2.17-1.51 3.32-3.82a1 1 0 0 1 1.78.9z" fill="#5b9ad8"/><path d="m30.22 23c-1.36.17-1.09-.28-3.09-9.3l-3.58-1.79c-.52-.26-.42-.29-1.72-4.62a1 1 0 0 1 .67-1.29l.29 1c1.08-.87.6-1.5 2 3.32l3.62 1.81c.6.29.4.09 2.53 9.67a1 1 0 0 1 -.72 1.2z" fill="#8bd1ea"/><path d="m13 15.81c-2.14 8.9-1.93 9.19-3 9.19a1 1 0 0 1 -1-1.23l1.77-7.51c1.42-.82 1.12-.43 1.41-1.65a1 1 0 0 1 .82 1.2z" fill="#8bd1ea"/><path d="m38 21.82a1 1 0 0 1 -1 1.18c-1.13 0-.9-.41-2.68-9.87a1 1 0 0 1 .8-1.16c.23 1.23-.06.89 1.27 1.37z" fill="#8bd1ea"/><path d="m22 21.16c-1 6.07-.86 6.84-2 6.84a1 1 0 0 1 -1-1.16l.93-5.56-3.72-4.66c-.46-.55-.46.13 3.43-14.47.1 0-.29.26 1.35-1.15.73 2.45 1.11-.24-2.9 14.77 4.08 5.09 3.98 4.8 3.91 5.39z" fill="#8bd1ea"/><g fill="#82bcf4"><path d="m7 48c-3.58 0-5 .35-5-1s1.36-1 5-1a1 1 0 0 1 0 2z"/><path d="m9 42c-3.58 0-5 .35-5-1s1.36-1 5-1a1 1 0 0 1 0 2z"/><path d="m16 45c-3.58 0-5 .35-5-1s1.36-1 5-1a1 1 0 0 1 0 2z"/><path d="m45 44c-3.58 0-5 .35-5-1s1.36-1 5-1a1 1 0 0 1 0 2z"/><path d="m47 33c-49.72 0-47 .43-47-1s-2.71-1 47-1a1 1 0 0 1 0 2z"/></g></svg>